<mxfile host="Electron" modified="2023-12-20T20:24:07.392Z" agent="Mozilla/5.0 (Windows NT 10.0; Win64; x64) AppleWebKit/537.36 (KHTML, like Gecko) draw.io/22.1.11 Chrome/114.0.5735.289 Electron/25.9.8 Safari/537.36" etag="7qq0sxVeNBJ4DaywuSTr" version="22.1.11" type="device">
  <diagram name="Seite-1" id="gXsGhxvbR1rUs4scFn6R">
    <mxGraphModel dx="1728" dy="699" grid="1" gridSize="10" guides="1" tooltips="1" connect="1" arrows="1" fold="1" page="1" pageScale="1" pageWidth="827" pageHeight="1169" math="0" shadow="0">
      <root>
        <mxCell id="0" />
        <mxCell id="1" parent="0" />
        <mxCell id="JtyTSiy6cuVC89I2NcMq-1" value="" style="rounded=1;whiteSpace=wrap;html=1;strokeWidth=3;fillColor=none;strokeColor=#FFFFFF;" parent="1" vertex="1">
          <mxGeometry x="110" y="460" width="170" height="170" as="geometry" />
        </mxCell>
        <mxCell id="JtyTSiy6cuVC89I2NcMq-17" style="rounded=0;orthogonalLoop=1;jettySize=auto;html=1;entryX=0;entryY=1;entryDx=0;entryDy=0;endArrow=none;endFill=0;strokeWidth=3;strokeColor=#FFFFFF;" parent="1" source="JtyTSiy6cuVC89I2NcMq-2" target="JtyTSiy6cuVC89I2NcMq-16" edge="1">
          <mxGeometry relative="1" as="geometry">
            <Array as="points">
              <mxPoint x="320" y="480" />
              <mxPoint x="350" y="480" />
            </Array>
          </mxGeometry>
        </mxCell>
        <mxCell id="JtyTSiy6cuVC89I2NcMq-21" style="rounded=0;orthogonalLoop=1;jettySize=auto;html=1;entryX=0;entryY=0.5;entryDx=0;entryDy=0;strokeWidth=3;endArrow=none;endFill=0;strokeColor=#FFFFFF;" parent="1" source="JtyTSiy6cuVC89I2NcMq-2" target="JtyTSiy6cuVC89I2NcMq-20" edge="1">
          <mxGeometry relative="1" as="geometry">
            <Array as="points">
              <mxPoint x="350" y="500" />
              <mxPoint x="380" y="470" />
            </Array>
          </mxGeometry>
        </mxCell>
        <mxCell id="JtyTSiy6cuVC89I2NcMq-23" style="rounded=0;orthogonalLoop=1;jettySize=auto;html=1;entryX=0;entryY=0.5;entryDx=0;entryDy=0;strokeWidth=3;endArrow=none;endFill=0;endSize=4;strokeColor=#FFFFFF;" parent="1" source="JtyTSiy6cuVC89I2NcMq-2" target="JtyTSiy6cuVC89I2NcMq-22" edge="1">
          <mxGeometry relative="1" as="geometry">
            <Array as="points">
              <mxPoint x="340" y="500" />
            </Array>
          </mxGeometry>
        </mxCell>
        <mxCell id="JtyTSiy6cuVC89I2NcMq-2" value="" style="ellipse;whiteSpace=wrap;html=1;strokeWidth=3;fillColor=none;strokeColor=#FFFFFF;" parent="1" vertex="1">
          <mxGeometry x="290" y="490" width="20" height="20" as="geometry" />
        </mxCell>
        <mxCell id="JtyTSiy6cuVC89I2NcMq-62" style="rounded=0;orthogonalLoop=1;jettySize=auto;html=1;entryX=0;entryY=0.5;entryDx=0;entryDy=0;endArrow=none;endFill=0;strokeWidth=3;strokeColor=#FFFFFF;" parent="1" source="JtyTSiy6cuVC89I2NcMq-3" target="JtyTSiy6cuVC89I2NcMq-52" edge="1">
          <mxGeometry relative="1" as="geometry" />
        </mxCell>
        <mxCell id="JtyTSiy6cuVC89I2NcMq-64" style="rounded=0;orthogonalLoop=1;jettySize=auto;html=1;entryX=0;entryY=0.5;entryDx=0;entryDy=0;endArrow=none;endFill=0;strokeWidth=3;strokeColor=#FFFFFF;" parent="1" source="JtyTSiy6cuVC89I2NcMq-3" target="JtyTSiy6cuVC89I2NcMq-53" edge="1">
          <mxGeometry relative="1" as="geometry">
            <Array as="points">
              <mxPoint x="330" y="560" />
              <mxPoint x="330" y="580" />
              <mxPoint x="340" y="590" />
            </Array>
          </mxGeometry>
        </mxCell>
        <mxCell id="JtyTSiy6cuVC89I2NcMq-3" value="" style="ellipse;whiteSpace=wrap;html=1;strokeWidth=3;fillColor=none;strokeColor=#FFFFFF;" parent="1" vertex="1">
          <mxGeometry x="290" y="550" width="20" height="20" as="geometry" />
        </mxCell>
        <mxCell id="JtyTSiy6cuVC89I2NcMq-57" style="rounded=0;orthogonalLoop=1;jettySize=auto;html=1;entryX=0;entryY=0.5;entryDx=0;entryDy=0;strokeWidth=3;endArrow=none;endFill=0;strokeColor=#FFFFFF;" parent="1" source="JtyTSiy6cuVC89I2NcMq-16" target="JtyTSiy6cuVC89I2NcMq-48" edge="1">
          <mxGeometry relative="1" as="geometry" />
        </mxCell>
        <mxCell id="JtyTSiy6cuVC89I2NcMq-58" style="rounded=0;orthogonalLoop=1;jettySize=auto;html=1;entryX=0;entryY=0.5;entryDx=0;entryDy=0;strokeWidth=3;endArrow=none;endFill=0;strokeColor=#FFFFFF;" parent="1" source="JtyTSiy6cuVC89I2NcMq-16" target="JtyTSiy6cuVC89I2NcMq-49" edge="1">
          <mxGeometry relative="1" as="geometry">
            <Array as="points">
              <mxPoint x="420" y="410" />
            </Array>
          </mxGeometry>
        </mxCell>
        <mxCell id="JtyTSiy6cuVC89I2NcMq-16" value="" style="ellipse;whiteSpace=wrap;html=1;strokeWidth=3;fillColor=none;strokeColor=#FFFFFF;" parent="1" vertex="1">
          <mxGeometry x="380" y="430" width="20" height="20" as="geometry" />
        </mxCell>
        <mxCell id="JtyTSiy6cuVC89I2NcMq-19" value="" style="rounded=0;whiteSpace=wrap;html=1;strokeWidth=3;fillColor=none;strokeColor=#FFFFFF;" parent="1" vertex="1">
          <mxGeometry x="127.5" y="477.5" width="135" height="135" as="geometry" />
        </mxCell>
        <mxCell id="JtyTSiy6cuVC89I2NcMq-20" value="" style="ellipse;whiteSpace=wrap;html=1;strokeWidth=3;fillColor=none;strokeColor=#FFFFFF;" parent="1" vertex="1">
          <mxGeometry x="410" y="460" width="20" height="20" as="geometry" />
        </mxCell>
        <mxCell id="JtyTSiy6cuVC89I2NcMq-56" style="rounded=0;orthogonalLoop=1;jettySize=auto;html=1;entryX=0.5;entryY=1;entryDx=0;entryDy=0;strokeWidth=3;endArrow=none;endFill=0;exitX=1;exitY=0.5;exitDx=0;exitDy=0;strokeColor=#FFFFFF;" parent="1" edge="1">
          <mxGeometry relative="1" as="geometry">
            <Array as="points">
              <mxPoint x="480" y="480" />
              <mxPoint x="490" y="470" />
            </Array>
            <mxPoint x="480" y="490" as="sourcePoint" />
            <mxPoint x="500" y="470" as="targetPoint" />
          </mxGeometry>
        </mxCell>
        <mxCell id="JtyTSiy6cuVC89I2NcMq-22" value="" style="ellipse;whiteSpace=wrap;html=1;strokeWidth=3;fillColor=none;strokeColor=#FFFFFF;" parent="1" vertex="1">
          <mxGeometry x="470" y="490" width="20" height="20" as="geometry" />
        </mxCell>
        <mxCell id="JtyTSiy6cuVC89I2NcMq-80" style="edgeStyle=orthogonalEdgeStyle;rounded=0;orthogonalLoop=1;jettySize=auto;html=1;entryX=0;entryY=0.5;entryDx=0;entryDy=0;strokeWidth=3;endArrow=none;endFill=0;strokeColor=#FFFFFF;" parent="1" source="JtyTSiy6cuVC89I2NcMq-24" target="JtyTSiy6cuVC89I2NcMq-51" edge="1">
          <mxGeometry relative="1" as="geometry" />
        </mxCell>
        <mxCell id="JtyTSiy6cuVC89I2NcMq-24" value="" style="ellipse;whiteSpace=wrap;html=1;strokeWidth=3;fillColor=none;strokeColor=#FFFFFF;" parent="1" vertex="1">
          <mxGeometry x="290" y="520" width="20" height="20" as="geometry" />
        </mxCell>
        <mxCell id="JtyTSiy6cuVC89I2NcMq-67" style="rounded=0;orthogonalLoop=1;jettySize=auto;html=1;entryX=0;entryY=0.5;entryDx=0;entryDy=0;endArrow=none;endFill=0;strokeWidth=3;strokeColor=#FFFFFF;" parent="1" source="JtyTSiy6cuVC89I2NcMq-31" target="JtyTSiy6cuVC89I2NcMq-55" edge="1">
          <mxGeometry relative="1" as="geometry">
            <Array as="points">
              <mxPoint x="320" y="610" />
              <mxPoint x="330" y="620" />
              <mxPoint x="340" y="620" />
            </Array>
          </mxGeometry>
        </mxCell>
        <mxCell id="JtyTSiy6cuVC89I2NcMq-31" value="" style="ellipse;whiteSpace=wrap;html=1;strokeWidth=3;fillColor=none;strokeColor=#FFFFFF;" parent="1" vertex="1">
          <mxGeometry x="290" y="580" width="20" height="20" as="geometry" />
        </mxCell>
        <mxCell id="JtyTSiy6cuVC89I2NcMq-96" style="rounded=0;orthogonalLoop=1;jettySize=auto;html=1;entryX=0;entryY=1;entryDx=0;entryDy=0;strokeWidth=3;endArrow=none;endFill=0;strokeColor=#FFFFFF;" parent="1" source="JtyTSiy6cuVC89I2NcMq-32" target="JtyTSiy6cuVC89I2NcMq-77" edge="1">
          <mxGeometry relative="1" as="geometry">
            <Array as="points">
              <mxPoint x="270" y="440" />
            </Array>
          </mxGeometry>
        </mxCell>
        <mxCell id="JtyTSiy6cuVC89I2NcMq-97" style="rounded=0;orthogonalLoop=1;jettySize=auto;html=1;entryX=0;entryY=0.5;entryDx=0;entryDy=0;strokeWidth=3;endArrow=none;endFill=0;strokeColor=#FFFFFF;" parent="1" source="JtyTSiy6cuVC89I2NcMq-32" target="JtyTSiy6cuVC89I2NcMq-76" edge="1">
          <mxGeometry relative="1" as="geometry">
            <Array as="points">
              <mxPoint x="240" y="390" />
              <mxPoint x="250" y="380" />
            </Array>
          </mxGeometry>
        </mxCell>
        <mxCell id="JtyTSiy6cuVC89I2NcMq-32" value="" style="ellipse;whiteSpace=wrap;html=1;strokeWidth=3;fillColor=none;strokeColor=#FFFFFF;" parent="1" vertex="1">
          <mxGeometry x="230" y="430" width="20" height="20" as="geometry" />
        </mxCell>
        <mxCell id="JtyTSiy6cuVC89I2NcMq-99" style="rounded=0;orthogonalLoop=1;jettySize=auto;html=1;entryX=0.5;entryY=1;entryDx=0;entryDy=0;strokeWidth=3;endArrow=none;endFill=0;strokeColor=#FFFFFF;" parent="1" source="JtyTSiy6cuVC89I2NcMq-33" target="JtyTSiy6cuVC89I2NcMq-86" edge="1">
          <mxGeometry relative="1" as="geometry" />
        </mxCell>
        <mxCell id="JtyTSiy6cuVC89I2NcMq-33" value="" style="ellipse;whiteSpace=wrap;html=1;strokeWidth=3;fillColor=none;strokeColor=#FFFFFF;" parent="1" vertex="1">
          <mxGeometry x="200" y="430" width="20" height="20" as="geometry" />
        </mxCell>
        <mxCell id="JtyTSiy6cuVC89I2NcMq-103" style="rounded=0;orthogonalLoop=1;jettySize=auto;html=1;entryX=1;entryY=0.5;entryDx=0;entryDy=0;strokeWidth=3;endArrow=none;endFill=0;strokeColor=#FFFFFF;" parent="1" source="JtyTSiy6cuVC89I2NcMq-34" target="JtyTSiy6cuVC89I2NcMq-87" edge="1">
          <mxGeometry relative="1" as="geometry">
            <Array as="points">
              <mxPoint x="180" y="420" />
              <mxPoint x="170" y="410" />
            </Array>
          </mxGeometry>
        </mxCell>
        <mxCell id="JtyTSiy6cuVC89I2NcMq-34" value="" style="ellipse;whiteSpace=wrap;html=1;strokeWidth=3;fillColor=none;strokeColor=#FFFFFF;" parent="1" vertex="1">
          <mxGeometry x="170" y="430" width="20" height="20" as="geometry" />
        </mxCell>
        <mxCell id="JtyTSiy6cuVC89I2NcMq-35" value="" style="ellipse;whiteSpace=wrap;html=1;strokeWidth=3;fillColor=none;strokeColor=#FFFFFF;" parent="1" vertex="1">
          <mxGeometry x="140" y="430" width="20" height="20" as="geometry" />
        </mxCell>
        <mxCell id="JtyTSiy6cuVC89I2NcMq-108" style="rounded=0;orthogonalLoop=1;jettySize=auto;html=1;entryX=0;entryY=0.5;entryDx=0;entryDy=0;strokeWidth=3;endArrow=none;endFill=0;strokeColor=#FFFFFF;" parent="1" source="JtyTSiy6cuVC89I2NcMq-37" target="JtyTSiy6cuVC89I2NcMq-89" edge="1">
          <mxGeometry relative="1" as="geometry">
            <Array as="points">
              <mxPoint x="240" y="670" />
              <mxPoint x="250" y="680" />
            </Array>
          </mxGeometry>
        </mxCell>
        <mxCell id="JtyTSiy6cuVC89I2NcMq-37" value="" style="ellipse;whiteSpace=wrap;html=1;strokeWidth=3;fillColor=none;strokeColor=#FFFFFF;" parent="1" vertex="1">
          <mxGeometry x="230" y="640" width="20" height="20" as="geometry" />
        </mxCell>
        <mxCell id="JtyTSiy6cuVC89I2NcMq-110" style="rounded=0;orthogonalLoop=1;jettySize=auto;html=1;entryX=0;entryY=0.5;entryDx=0;entryDy=0;strokeWidth=3;endArrow=none;endFill=0;strokeColor=#FFFFFF;" parent="1" source="JtyTSiy6cuVC89I2NcMq-38" target="JtyTSiy6cuVC89I2NcMq-94" edge="1">
          <mxGeometry relative="1" as="geometry">
            <Array as="points">
              <mxPoint x="210" y="690" />
            </Array>
          </mxGeometry>
        </mxCell>
        <mxCell id="JtyTSiy6cuVC89I2NcMq-111" style="rounded=0;orthogonalLoop=1;jettySize=auto;html=1;entryX=0.5;entryY=0;entryDx=0;entryDy=0;strokeWidth=3;endArrow=none;endFill=0;strokeColor=#FFFFFF;" parent="1" source="JtyTSiy6cuVC89I2NcMq-38" target="JtyTSiy6cuVC89I2NcMq-95" edge="1">
          <mxGeometry relative="1" as="geometry">
            <Array as="points">
              <mxPoint x="180" y="680" />
            </Array>
          </mxGeometry>
        </mxCell>
        <mxCell id="JtyTSiy6cuVC89I2NcMq-38" value="" style="ellipse;whiteSpace=wrap;html=1;strokeWidth=3;fillColor=none;strokeColor=#FFFFFF;" parent="1" vertex="1">
          <mxGeometry x="200" y="640" width="20" height="20" as="geometry" />
        </mxCell>
        <mxCell id="JtyTSiy6cuVC89I2NcMq-39" value="" style="ellipse;whiteSpace=wrap;html=1;strokeWidth=3;fillColor=none;strokeColor=#FFFFFF;" parent="1" vertex="1">
          <mxGeometry x="170" y="640" width="20" height="20" as="geometry" />
        </mxCell>
        <mxCell id="JtyTSiy6cuVC89I2NcMq-40" value="" style="ellipse;whiteSpace=wrap;html=1;strokeWidth=3;fillColor=none;strokeColor=#FFFFFF;" parent="1" vertex="1">
          <mxGeometry x="140" y="640" width="20" height="20" as="geometry" />
        </mxCell>
        <mxCell id="JtyTSiy6cuVC89I2NcMq-42" value="" style="ellipse;whiteSpace=wrap;html=1;strokeWidth=3;fillColor=none;strokeColor=#FFFFFF;" parent="1" vertex="1">
          <mxGeometry x="80" y="490" width="20" height="20" as="geometry" />
        </mxCell>
        <mxCell id="JtyTSiy6cuVC89I2NcMq-43" value="" style="ellipse;whiteSpace=wrap;html=1;strokeWidth=3;fillColor=none;strokeColor=#FFFFFF;" parent="1" vertex="1">
          <mxGeometry x="80" y="550" width="20" height="20" as="geometry" />
        </mxCell>
        <mxCell id="JtyTSiy6cuVC89I2NcMq-44" value="" style="ellipse;whiteSpace=wrap;html=1;strokeWidth=3;fillColor=none;strokeColor=#FFFFFF;" parent="1" vertex="1">
          <mxGeometry x="80" y="520" width="20" height="20" as="geometry" />
        </mxCell>
        <mxCell id="JtyTSiy6cuVC89I2NcMq-45" value="" style="ellipse;whiteSpace=wrap;html=1;strokeWidth=3;fillColor=none;strokeColor=#FFFFFF;" parent="1" vertex="1">
          <mxGeometry x="80" y="580" width="20" height="20" as="geometry" />
        </mxCell>
        <mxCell id="JtyTSiy6cuVC89I2NcMq-48" value="" style="ellipse;whiteSpace=wrap;html=1;strokeWidth=3;fillColor=none;strokeColor=#FFFFFF;" parent="1" vertex="1">
          <mxGeometry x="470" y="430" width="20" height="20" as="geometry" />
        </mxCell>
        <mxCell id="JtyTSiy6cuVC89I2NcMq-49" value="" style="ellipse;whiteSpace=wrap;html=1;strokeWidth=3;fillColor=none;strokeColor=#FFFFFF;" parent="1" vertex="1">
          <mxGeometry x="440" y="400" width="20" height="20" as="geometry" />
        </mxCell>
        <mxCell id="JtyTSiy6cuVC89I2NcMq-50" value="" style="ellipse;whiteSpace=wrap;html=1;strokeWidth=3;fillColor=none;strokeColor=#FFFFFF;" parent="1" vertex="1">
          <mxGeometry x="500" y="460" width="20" height="20" as="geometry" />
        </mxCell>
        <mxCell id="JtyTSiy6cuVC89I2NcMq-51" value="" style="ellipse;whiteSpace=wrap;html=1;strokeWidth=3;fillColor=none;strokeColor=#FFFFFF;" parent="1" vertex="1">
          <mxGeometry x="350" y="520" width="20" height="20" as="geometry" />
        </mxCell>
        <mxCell id="JtyTSiy6cuVC89I2NcMq-52" value="" style="ellipse;whiteSpace=wrap;html=1;strokeWidth=3;fillColor=none;strokeColor=#FFFFFF;" parent="1" vertex="1">
          <mxGeometry x="380" y="550" width="20" height="20" as="geometry" />
        </mxCell>
        <mxCell id="JtyTSiy6cuVC89I2NcMq-66" style="rounded=0;orthogonalLoop=1;jettySize=auto;html=1;entryX=0;entryY=0.5;entryDx=0;entryDy=0;endArrow=none;endFill=0;strokeWidth=3;exitX=1;exitY=1;exitDx=0;exitDy=0;strokeColor=#FFFFFF;" parent="1" source="JtyTSiy6cuVC89I2NcMq-53" target="JtyTSiy6cuVC89I2NcMq-54" edge="1">
          <mxGeometry relative="1" as="geometry">
            <Array as="points">
              <mxPoint x="380" y="610" />
              <mxPoint x="390" y="620" />
              <mxPoint x="400" y="620" />
            </Array>
          </mxGeometry>
        </mxCell>
        <mxCell id="JtyTSiy6cuVC89I2NcMq-53" value="" style="ellipse;whiteSpace=wrap;html=1;strokeWidth=3;fillColor=none;strokeColor=#FFFFFF;" parent="1" vertex="1">
          <mxGeometry x="350" y="580" width="20" height="20" as="geometry" />
        </mxCell>
        <mxCell id="JtyTSiy6cuVC89I2NcMq-54" value="" style="ellipse;whiteSpace=wrap;html=1;strokeWidth=3;fillColor=none;strokeColor=#FFFFFF;" parent="1" vertex="1">
          <mxGeometry x="410" y="610" width="20" height="20" as="geometry" />
        </mxCell>
        <mxCell id="JtyTSiy6cuVC89I2NcMq-55" value="" style="ellipse;whiteSpace=wrap;html=1;strokeWidth=3;fillColor=none;strokeColor=#FFFFFF;" parent="1" vertex="1">
          <mxGeometry x="350" y="610" width="20" height="20" as="geometry" />
        </mxCell>
        <mxCell id="JtyTSiy6cuVC89I2NcMq-76" value="" style="ellipse;whiteSpace=wrap;html=1;strokeWidth=3;fillColor=none;strokeColor=#FFFFFF;" parent="1" vertex="1">
          <mxGeometry x="260" y="370" width="20" height="20" as="geometry" />
        </mxCell>
        <mxCell id="JtyTSiy6cuVC89I2NcMq-98" style="rounded=0;orthogonalLoop=1;jettySize=auto;html=1;entryX=0.5;entryY=1;entryDx=0;entryDy=0;strokeWidth=3;endArrow=none;endFill=0;strokeColor=#FFFFFF;" parent="1" source="JtyTSiy6cuVC89I2NcMq-77" target="JtyTSiy6cuVC89I2NcMq-85" edge="1">
          <mxGeometry relative="1" as="geometry">
            <Array as="points">
              <mxPoint x="330" y="380" />
            </Array>
          </mxGeometry>
        </mxCell>
        <mxCell id="JtyTSiy6cuVC89I2NcMq-117" value="" style="rounded=0;orthogonalLoop=1;jettySize=auto;html=1;strokeWidth=3;endArrow=none;endFill=0;strokeColor=#FFFFFF;" parent="1" source="JtyTSiy6cuVC89I2NcMq-77" target="JtyTSiy6cuVC89I2NcMq-115" edge="1">
          <mxGeometry relative="1" as="geometry" />
        </mxCell>
        <mxCell id="JtyTSiy6cuVC89I2NcMq-77" value="" style="ellipse;whiteSpace=wrap;html=1;strokeWidth=3;fillColor=none;strokeColor=#FFFFFF;" parent="1" vertex="1">
          <mxGeometry x="290" y="400" width="20" height="20" as="geometry" />
        </mxCell>
        <mxCell id="JtyTSiy6cuVC89I2NcMq-82" value="" style="ellipse;whiteSpace=wrap;html=1;strokeWidth=3;fillColor=none;strokeColor=#FFFFFF;" parent="1" vertex="1">
          <mxGeometry x="230" y="310" width="20" height="20" as="geometry" />
        </mxCell>
        <mxCell id="JtyTSiy6cuVC89I2NcMq-85" value="" style="ellipse;whiteSpace=wrap;html=1;strokeWidth=3;fillColor=none;strokeColor=#FFFFFF;" parent="1" vertex="1">
          <mxGeometry x="320" y="340" width="20" height="20" as="geometry" />
        </mxCell>
        <mxCell id="JtyTSiy6cuVC89I2NcMq-86" value="" style="ellipse;whiteSpace=wrap;html=1;strokeWidth=3;fillColor=none;strokeColor=#FFFFFF;" parent="1" vertex="1">
          <mxGeometry x="200" y="340" width="20" height="20" as="geometry" />
        </mxCell>
        <mxCell id="JtyTSiy6cuVC89I2NcMq-87" value="" style="ellipse;whiteSpace=wrap;html=1;strokeWidth=3;fillColor=none;strokeColor=#FFFFFF;" parent="1" vertex="1">
          <mxGeometry x="140" y="400" width="20" height="20" as="geometry" />
        </mxCell>
        <mxCell id="JtyTSiy6cuVC89I2NcMq-109" style="rounded=0;orthogonalLoop=1;jettySize=auto;html=1;strokeWidth=3;endArrow=none;endFill=0;strokeColor=#FFFFFF;" parent="1" source="JtyTSiy6cuVC89I2NcMq-89" target="JtyTSiy6cuVC89I2NcMq-93" edge="1">
          <mxGeometry relative="1" as="geometry">
            <Array as="points">
              <mxPoint x="290" y="680" />
              <mxPoint x="300" y="680" />
            </Array>
          </mxGeometry>
        </mxCell>
        <mxCell id="JtyTSiy6cuVC89I2NcMq-114" style="rounded=0;orthogonalLoop=1;jettySize=auto;html=1;entryX=0;entryY=0.5;entryDx=0;entryDy=0;strokeWidth=3;endArrow=none;endFill=0;strokeColor=#FFFFFF;" parent="1" source="JtyTSiy6cuVC89I2NcMq-89" target="JtyTSiy6cuVC89I2NcMq-113" edge="1">
          <mxGeometry relative="1" as="geometry">
            <Array as="points">
              <mxPoint x="270" y="660" />
              <mxPoint x="280" y="650" />
            </Array>
          </mxGeometry>
        </mxCell>
        <mxCell id="JtyTSiy6cuVC89I2NcMq-89" value="" style="ellipse;whiteSpace=wrap;html=1;strokeWidth=3;fillColor=none;strokeColor=#FFFFFF;" parent="1" vertex="1">
          <mxGeometry x="260" y="670" width="20" height="20" as="geometry" />
        </mxCell>
        <mxCell id="JtyTSiy6cuVC89I2NcMq-91" value="" style="ellipse;whiteSpace=wrap;html=1;strokeWidth=3;fillColor=none;strokeColor=#FFFFFF;" parent="1" vertex="1">
          <mxGeometry x="260" y="730" width="20" height="20" as="geometry" />
        </mxCell>
        <mxCell id="JtyTSiy6cuVC89I2NcMq-93" value="" style="ellipse;whiteSpace=wrap;html=1;strokeWidth=3;fillColor=none;strokeColor=#FFFFFF;" parent="1" vertex="1">
          <mxGeometry x="320" y="700" width="20" height="20" as="geometry" />
        </mxCell>
        <mxCell id="JtyTSiy6cuVC89I2NcMq-112" style="rounded=0;orthogonalLoop=1;jettySize=auto;html=1;entryX=0.5;entryY=0;entryDx=0;entryDy=0;strokeWidth=3;endArrow=none;endFill=0;exitX=1;exitY=0.5;exitDx=0;exitDy=0;strokeColor=#FFFFFF;" parent="1" source="JtyTSiy6cuVC89I2NcMq-94" target="JtyTSiy6cuVC89I2NcMq-91" edge="1">
          <mxGeometry relative="1" as="geometry">
            <Array as="points">
              <mxPoint x="260" y="710" />
              <mxPoint x="270" y="720" />
            </Array>
          </mxGeometry>
        </mxCell>
        <mxCell id="JtyTSiy6cuVC89I2NcMq-94" value="" style="ellipse;whiteSpace=wrap;html=1;strokeWidth=3;fillColor=none;strokeColor=#FFFFFF;" parent="1" vertex="1">
          <mxGeometry x="230" y="700" width="20" height="20" as="geometry" />
        </mxCell>
        <mxCell id="JtyTSiy6cuVC89I2NcMq-95" value="" style="ellipse;whiteSpace=wrap;html=1;strokeWidth=3;fillColor=none;strokeColor=#FFFFFF;" parent="1" vertex="1">
          <mxGeometry x="170" y="700" width="20" height="20" as="geometry" />
        </mxCell>
        <mxCell id="JtyTSiy6cuVC89I2NcMq-100" style="rounded=0;orthogonalLoop=1;jettySize=auto;html=1;entryX=0.5;entryY=1;entryDx=0;entryDy=0;strokeWidth=3;endArrow=none;endFill=0;strokeColor=#FFFFFF;" parent="1" source="JtyTSiy6cuVC89I2NcMq-33" target="JtyTSiy6cuVC89I2NcMq-82" edge="1">
          <mxGeometry relative="1" as="geometry">
            <Array as="points">
              <mxPoint x="210" y="380" />
              <mxPoint x="240" y="350" />
            </Array>
          </mxGeometry>
        </mxCell>
        <mxCell id="JtyTSiy6cuVC89I2NcMq-113" value="" style="ellipse;whiteSpace=wrap;html=1;strokeWidth=3;fillColor=none;strokeColor=#FFFFFF;" parent="1" vertex="1">
          <mxGeometry x="290" y="640" width="20" height="20" as="geometry" />
        </mxCell>
        <mxCell id="JtyTSiy6cuVC89I2NcMq-115" value="" style="ellipse;whiteSpace=wrap;html=1;strokeWidth=3;fillColor=none;strokeColor=#FFFFFF;" parent="1" vertex="1">
          <mxGeometry x="350" y="400" width="20" height="20" as="geometry" />
        </mxCell>
      </root>
    </mxGraphModel>
  </diagram>
</mxfile>
